<?xml version="1.0" encoding="utf-8"?>
<svg version="1.1" xmlns="http://www.w3.org/2000/svg" viewBox="0 0 24 24">
    <path
        d="M7,20c-1.3,0-2.6-0.5-3.5-1.4C2.5,17.6,2,16.4,2,15s0.5-2.6,1.5-3.5L7,7.9c1.9-1.9,5.1-1.9,7.1,0c1.2,1.2,1.7,2.9,1.4,4.5
        c-0.1,0.5-0.6,0.9-1.2,0.8c-0.5-0.1-0.9-0.6-0.8-1.2c0.2-1-0.1-2-0.8-2.7c-1.2-1.2-3.1-1.2-4.2,0l-3.5,3.5C4.3,13.5,4,14.2,4,15
        s0.3,1.6,0.9,2.1c0.9,0.9,2.4,1.1,3.6,0.5c0.5-0.3,1.1-0.1,1.4,0.4c0.3,0.5,0.1,1.1-0.4,1.4C8.6,19.8,7.8,20,7,20z" />
    <path
        d="M13.5,17.5c-1.3,0-2.6-0.5-3.5-1.5c-1.2-1.2-1.7-2.9-1.4-4.5c0.1-0.5,0.6-0.9,1.2-0.8c0.5,0.1,0.9,0.6,0.8,1.2
        c-0.2,1,0.1,2,0.8,2.7c1.2,1.2,3.1,1.2,4.2,0l3.5-3.5C19.7,10.5,20,9.8,20,9c0-0.8-0.3-1.6-0.9-2.1c-0.9-0.9-2.4-1.1-3.6-0.5
        c-0.5,0.3-1.1,0.1-1.4-0.4c-0.3-0.5-0.1-1.1,0.4-1.4c1.9-1.1,4.4-0.7,5.9,0.8C21.5,6.4,22,7.6,22,9c0,1.3-0.5,2.6-1.5,3.5L17,16.1
        C16,17,14.7,17.5,13.5,17.5z" />
    <path
        d="M20,18.5h-0.7l1.1-2.3c0.1-0.2,0-0.5-0.2-0.6c-0.2-0.1-0.5-0.1-0.6,0.1l-3,3c-0.1,0.1-0.2,0.4-0.1,0.5s0.3,0.3,0.5,0.3h0.7
        l-1.1,2.3c-0.1,0.2,0,0.5,0.2,0.6c0.1,0.1,0.2,0.1,0.3,0.1c0.1,0,0.3,0,0.4-0.1l3-3c0.1-0.1,0.2-0.4,0.1-0.5S20.2,18.5,20,18.5z" />
</svg>