<?xml version="1.0" encoding="utf-8"?>
<svg version="1.1" xmlns="http://www.w3.org/2000/svg" viewBox="0 0 24 24">
    <circle cx="20" cy="13" r="1" />
    <circle cx="16" cy="13" r="1" />
    <circle cx="12" cy="13" r="1" />
    <circle cx="8" cy="13" r="1" />
    <circle cx="4" cy="13" r="1" />
    <path
        d="M20,20c0-0.6-0.4-1-1-1c-0.1,0-0.3,0-0.4,0l-3,3c1.2,0,2.6-0.2,3.9-1.1C19.7,20.6,20,20.4,20,20z" />
    <path d="M13.5,21.9l3.2-3.2c-0.7-0.2-1.4-0.4-2.1-0.8l-3.3,3.3C12.1,21.5,12.8,21.7,13.5,21.9z" />
    <path d="M13.3,17.1c-0.5-0.3-0.9-0.7-1.3-1.1h-0.4l-3.3,3.3c0.5,0.4,1,0.8,1.6,1.2L13.3,17.1z" />
    <path d="M6,16c0.2,0.7,0.7,1.5,1.2,2.2L9.4,16H6z" />
    <path d="M11,2c-3,0-6,5.3-6,8h4.8c0-1,0.2-4,1.9-6.2C11.8,3.5,12,3.3,12,3C12,2.4,11.6,2,11,2z" />
</svg>