<?xml version="1.0" encoding="utf-8"?>
<svg version="1.1" xmlns="http://www.w3.org/2000/svg" viewBox="0 0 24 24">
    <path
        d="M21.4,17.4l-5.2-5.2l0.5-0.5c0.4-0.4,0.4-1,0-1.4c-0.1-0.1-0.2-0.2-0.4-0.2L10,16.4c0,0.1,0.1,0.3,0.2,0.4
	c0.4,0.4,1,0.4,1.4,0l0.5-0.5l5.2,5.2c0.8,0.8,2,0.8,2.8,0l1.2-1.2C22.2,19.5,22.2,18.2,21.4,17.4z M20,20h-2v-2h-2v-2h-2v-2h2v2h2
	v2h2V20z" />
    <path
        d="M6,2L4.8,3.2c-1.6,1.6-1.6,4.1,0,5.7l5.6,5.6l4-4L6,2z M5.5,8.1C5,7.6,4.7,6.8,4.7,6c0-0.7,0.2-1.3,0.7-1.9l7,7l-2,1.9
		L5.5,8.1z" />
    <path d="M14,4h-3c-0.6,0-1-0.4-1-1s0.4-1,1-1h3c0.6,0,1,0.4,1,1S14.6,4,14,4z" />
    <path d="M19,4h-1c-0.6,0-1-0.4-1-1s0.4-1,1-1h1c0.6,0,1,0.4,1,1S19.6,4,19,4z" />
    <path d="M20,7h-5c-0.6,0-1-0.4-1-1s0.4-1,1-1h5c0.6,0,1,0.4,1,1S20.6,7,20,7z" />
    <path d="M21,10h-2c-0.6,0-1-0.4-1-1s0.4-1,1-1h2c0.6,0,1,0.4,1,1S21.6,10,21,10z" />
</svg>