<?xml version="1.0" encoding="utf-8"?>
<svg version="1.1" xmlns="http://www.w3.org/2000/svg" viewBox="0 0 24 24">
    <path
        d="M7,20c-1.3,0-2.6-0.5-3.5-1.4C2.5,17.6,2,16.4,2,15s0.5-2.6,1.5-3.5L7,7.9c1.9-1.9,5.1-1.9,7.1,0c1.2,1.2,1.7,2.9,1.4,4.5
    c-0.1,0.5-0.6,0.9-1.2,0.8c-0.5-0.1-0.9-0.6-0.8-1.2c0.2-1-0.1-2-0.8-2.7c-1.2-1.2-3.1-1.2-4.2,0l-3.5,3.5C4.3,13.5,4,14.2,4,15
    s0.3,1.6,0.9,2.1c0.9,0.9,2.4,1.1,3.6,0.5c0.5-0.3,1.1-0.1,1.4,0.4c0.3,0.5,0.1,1.1-0.4,1.4C8.6,19.8,7.8,20,7,20z" />
    <path
        d="M19.8,12.8c-0.3,0-0.5-0.1-0.7-0.3c-0.4-0.4-0.4-1,0-1.4C19.7,10.5,20,9.8,20,9s-0.3-1.6-0.9-2.1c-0.9-0.9-2.4-1.1-3.6-0.5
    c-0.5,0.3-1.1,0.1-1.4-0.4c-0.3-0.5-0.1-1.1,0.4-1.4c1.9-1.1,4.4-0.7,5.9,0.8C21.5,6.4,22,7.6,22,9c0,1.3-0.5,2.6-1.5,3.5
    C20.3,12.7,20.1,12.8,19.8,12.8z" />
    <path
        d="M19,16L19,16c0,0.6,0.4,1,1,1h1c0.6,0,1-0.4,1-1v0c0-0.6-0.4-1-1-1h-1C19.4,15,19,15.4,19,16z" />
    <path
        d="M18.1,17.7L18.1,17.7c-0.5,0.3-0.6,0.9-0.3,1.4l0.5,0.8c0.3,0.5,0.9,0.6,1.4,0.3h0c0.5-0.3,0.6-0.9,0.3-1.4L19.4,18
    C19.1,17.5,18.5,17.4,18.1,17.7z" />
    <path
        d="M16,17.7L16,17.7c-0.5-0.3-1.1-0.1-1.4,0.4L14.1,19c-0.3,0.5-0.1,1.1,0.4,1.4h0c0.5,0.3,1.1,0.1,1.4-0.4l0.5-0.9
    C16.6,18.6,16.5,18,16,17.7z" />
    <path
        d="M12.2,17.2c-0.2,0.1-0.5,0.1-0.7,0c-1.2-0.5-2.2-1.5-2.7-2.7c-0.5-1.2-0.5-2.6,0-3.8c0.2-0.5,0.8-0.7,1.3-0.5
    c0.5,0.2,0.7,0.8,0.5,1.3c-0.3,0.7-0.3,1.6,0,2.3c0.3,0.7,0.9,1.3,1.6,1.6c0.5,0.2,0.7,0.8,0.5,1.3C12.7,16.9,12.5,17.1,12.2,17.2z"
    />
</svg>