<?xml version="1.0" encoding="utf-8"?>
<svg version="1.1" xmlns="http://www.w3.org/2000/svg" viewBox="0 0 24 24">
   <path d="M12,15H5.7c0.5,1.4,1.4,2.6,2.5,3.7c2.1,2.1,4.9,3.3,7.9,3.3c0,0,0,0,0,0c1.5,0,2.7-1.1,2.9-2.5C16.2,19,13.6,17.3,12,15z" />
   <path d="M10,9c0-0.1,0-0.2,0-0.3c0-2.3,0.7-4.4,1.9-6.2c-1.2-0.7-2.7-0.6-3.7,0.4C6.5,4.6,5.4,6.8,5.1,9H10z" />
   <path d="M5,13c-0.6,0-1-0.4-1-1c0-0.6,0.4-1,1-1h2c0.6,0,1,0.4,1,1c0,0.6-0.4,1-1,1H5z" />
   <path d="M11,13c-0.6,0-1-0.4-1-1c0-0.6,0.4-1,1-1h2c0.6,0,1,0.4,1,1c0,0.6-0.4,1-1,1H11z" />
   <path d="M17,13c-0.6,0-1-0.4-1-1c0-0.6,0.4-1,1-1h2c0.6,0,1,0.4,1,1c0,0.6-0.4,1-1,1H17z" />
</svg>